<?xml version="1.0" standalone="no"?><!-- Generator: Gravit.io --><svg xmlns="http://www.w3.org/2000/svg" xmlns:xlink="http://www.w3.org/1999/xlink" style="isolation:isolate" viewBox="44.853 134.8 557.34 178.2" width="557.34" height="178.2"><linearGradient id="_lgradient_0" x1="0.49998797861269595" y1="0.12621773288439964" x2="0.49998797861269567" y2="1.5739814814814814" gradientTransform="matrix(557.34,0,0,178.2,44.853,134.8)" gradientUnits="userSpaceOnUse"><stop offset="0%" stop-opacity="1" style="stop-color:rgb(182,226,233)"/><stop offset="74.58%" stop-opacity="1" style="stop-color:rgb(224,250,250)"/></linearGradient><path d=" M 590.573 219.21 L 590.573 177.01 L 582.903 177.01 C 574.313 177.01 567.353 183.97 567.353 192.56 L 567.353 219.22 L 563.483 219.22 L 563.483 148.52 L 524.783 148.88 L 524.783 202.81 L 515.103 202.81 L 515.103 134.81 L 493.813 134.81 L 493.813 157.3 C 493.813 164.3 488.133 169.98 481.133 169.98 L 470.583 169.98 L 470.583 155.91 L 449.293 155.91 L 449.293 219.22 L 449.293 219.22 C 443.953 219.22 439.613 214.89 439.613 209.54 L 439.613 200.46 L 416.393 200.46 L 416.393 172.32 L 400.913 172.32 L 400.913 188.73 L 393.173 188.73 L 393.173 158.25 L 387.363 158.25 L 387.363 153.56 L 352.533 153.56 L 352.533 233.28 L 325.443 233.28 L 325.443 148.87 L 294.483 148.87 L 294.483 158.25 L 284.803 158.25 L 284.803 228.59 L 267.383 228.59 L 267.383 212.18 L 255.773 212.18 L 255.773 172.05 L 230.613 172.32 L 230.613 207.6 C 230.613 214.01 225.413 219.21 219.003 219.21 L 219.003 219.21 L 219.003 177.01 L 195.783 177.01 L 195.783 219.21 L 191.913 219.21 L 191.913 168.2 C 191.913 157.5 183.233 148.84 172.543 148.85 L 172.543 148.85 C 161.863 148.86 153.213 157.52 153.213 168.2 L 153.213 202.8 L 143.533 202.8 L 143.533 134.8 L 122.253 134.8 L 122.253 169.97 L 99.033 169.97 L 99.033 155.9 L 77.743 155.9 L 77.743 219.21 L 68.063 219.21 L 68.063 200.45 L 44.853 200.45 L 44.853 313 L 230.633 313 L 416.413 313 L 602.193 313 L 602.193 219.21 L 590.573 219.21 L 590.573 219.21 Z " id="back-2" class="st4" fill="url(#_lgradient_0)"/></svg>